<?xml version="1.0" encoding="UTF-8"?>
<svg width="448px" height="448px" viewBox="0 0 448 448" version="1.1" xmlns="http://www.w3.org/2000/svg" xmlns:xlink="http://www.w3.org/1999/xlink">
    <title>trello-brands</title>
    <g id="Page-1" stroke="none" stroke-width="1" fill="none" fill-rule="evenodd">
        <g id="trello-brands">
            <rect id="Rectangle" fill="#FFFFFF" x="41" y="42" width="367" height="363"></rect>
            <path d="M392.344444,0 L56.1444444,0 C25.1444444,0 0.0444444444,25.1 0.0444444444,56 C-0.0555555556,56 0.0444444444,52 0.0444444444,392 C0.0444444444,422.9 25.1444444,448 56.0444444,448 L392.244444,448 C423.044444,447.8 447.944745,422.8 447.944745,392 L447.944745,56 C448.044444,25.2 423.144444,0.2 392.344444,0 L392.344444,0 Z M197.044444,339.3 C196.844444,354 184.944444,365.900626 170.144444,365.900626 L87.4444444,365.900626 C72.6444444,366 60.5444444,354.1 60.4444444,339.3 L60.4444444,85.1 C60.4444444,70.3 72.4444444,58.2 87.3444444,58.2 L170.244444,58.2 C185.044444,58.2 197.144444,70.2 197.144444,85.1 L197.144444,339.3 L197.044444,339.3 Z M390.144444,227.3 C390.144444,242.1 378.144444,254.2 363.244444,254.2 L282.244444,254.2 C267.444444,254.2 255.344444,242.2 255.344444,227.3 L255.344444,85.2 C255.344444,70.4 267.344444,58.3 282.144444,58.3 L363.244444,58.3 C378.044444,58.3 390.144444,70.3 390.144444,85.2 L390.144444,227.3 Z" id="Shape" fill="#00B0FF" fill-rule="nonzero"></path>
        </g>
    </g>
</svg>