<?xml version="1.0" encoding="UTF-8"?>
<svg width="88px" height="88px" viewBox="0 0 88 88" version="1.1" xmlns="http://www.w3.org/2000/svg" xmlns:xlink="http://www.w3.org/1999/xlink">
    <title>trello-map-icon</title>
    <g id="Page-1" stroke="none" stroke-width="1" fill="none" fill-rule="evenodd">
        <g id="trello-map-icon">
            <circle id="Oval" fill="#000000" cx="44" cy="44" r="44"></circle>
            <g id="Group" transform="translate(15.000000, 15.000000)">
                <rect id="Rectangle" fill="#FFFFFF" x="5.21723646" y="5.34448612" width="46.7006288" height="46.1916301"></rect>
                <path d="M49.9257009,0 L7.14436201,0 C3.19962225,0 0.00565554087,3.19396671 0.00565554087,7.1259815 C-0.00706942609,7.1259815 0.00565554087,6.61698282 0.00565554087,49.8818705 C0.00565554087,53.8138853 3.19962225,57.007852 7.13163704,57.007852 L49.912976,57.007852 C53.8322658,56.9824021 57.0008208,53.8011603 57.0008208,49.8818705 L57.0008208,7.1259815 C57.0135075,3.20669167 53.8449908,0.0254499339 49.9257009,0 L49.9257009,0 Z M25.0738405,43.1758129 C25.0483905,45.0463831 23.5341195,46.5607337 21.6508243,46.5607337 L11.1272767,46.5607337 C9.24398156,46.5733791 7.70426055,45.059108 7.69153559,43.1758129 L7.69153559,10.8289469 C7.69153559,8.94565178 9.21853162,7.40593077 11.1145517,7.40593077 L21.6635493,7.40593077 C23.5468444,7.40593077 25.0865654,8.93292681 25.0865654,10.8289469 L25.0865654,43.1758129 L25.0738405,43.1758129 Z M49.6457517,28.9238499 C49.6457517,30.807145 48.1187556,32.346866 46.2227356,32.346866 L35.9155123,32.346866 C34.0322172,32.346866 32.4924962,30.81987 32.4924962,28.9238499 L32.4924962,10.8416719 C32.4924962,8.95837674 34.0194922,7.41865574 35.9027873,7.41865574 L46.2227356,7.41865574 C48.1060307,7.41865574 49.6457517,8.94565178 49.6457517,10.8416719 L49.6457517,28.9238499 Z" id="Shape" fill="#000000" fill-rule="nonzero"></path>
            </g>
        </g>
    </g>
</svg>